<svg width="25" height="20" viewBox="0 0 25 20" fill="none" xmlns="http://www.w3.org/2000/svg">
<path d="M24.2067 10.7077L15.207 19.7074C15.0194 19.895 14.7649 20.0005 14.4995 20.0005C14.2342 20.0005 13.9797 19.895 13.7921 19.7074C13.6044 19.5198 13.499 19.2653 13.499 18.9999C13.499 18.7346 13.6044 18.4801 13.7921 18.2925L21.0856 11.0002H1.49997C1.23476 11.0002 0.980414 10.8948 0.792884 10.7073C0.605354 10.5198 0.5 10.2654 0.5 10.0002C0.5 9.73502 0.605354 9.48068 0.792884 9.29315C0.980414 9.10562 1.23476 9.00026 1.49997 9.00026H21.0856L13.7921 1.708C13.6044 1.52037 13.499 1.26588 13.499 1.00052C13.499 0.735168 13.6044 0.480681 13.7921 0.293046C13.9797 0.105412 14.2342 0 14.4995 0C14.7649 0 15.0194 0.105412 15.207 0.293046L24.2067 9.29275C24.2997 9.38562 24.3735 9.49591 24.4238 9.6173C24.4741 9.7387 24.5 9.86882 24.5 10.0002C24.5 10.1316 24.4741 10.2618 24.4238 10.3832C24.3735 10.5046 24.2997 10.6148 24.2067 10.7077Z" fill="#030712"/>
</svg>
