<svg width="44" height="70" viewBox="0 0 44 70" fill="none" xmlns="http://www.w3.org/2000/svg">
<path d="M10.1429 3L2 7.17391V63.1353M10.1429 3L18.4395 7.17391V17.5314C20.1808 18.5105 22.6884 19.2825 28.1188 22.0145C34.7775 25.3644 36.4154 26.5952 38.4127 28.8164C42.717 33.6032 41.9464 40.5652 41.9464 45.8213M10.1429 3V50.9227L18.4395 47.9855M2 63.1353L12.2939 67L33.9572 58.6522C41.3319 54.6328 41.4855 51.3865 41.9464 45.8213M2 63.1353L25.9679 53.2415C30.8843 50.9227 33.9572 45.8213 27.3506 40.7198M18.4395 47.9855C22.4341 46.7488 29.1943 43.9662 27.3506 40.7198M18.4395 47.9855V36.2367M27.3506 40.7198C24.7387 39.0085 24.2778 38.401 18.4395 36.2367M18.4395 36.2367V26.343C22.1269 28.095 30.3927 32.1865 33.9572 34.5362C37.5216 36.886 40.8821 39.9469 41.9464 45.8213" stroke="black" stroke-width="4"/>
</svg>
