<svg width="40" height="66" viewBox="0 0 40 66" fill="none" xmlns="http://www.w3.org/2000/svg">
<path d="M8.73576 1L1 5.17391V61.1353M8.73576 1L16.6175 5.17391V15.5314C18.2718 16.5105 20.654 17.2825 25.8129 20.0145C32.1386 23.3644 33.6947 24.5952 35.5921 26.8164C39.6812 31.6032 38.9491 38.5652 38.9491 43.8213M8.73576 1V48.9227L16.6175 45.9855M1 61.1353L10.7792 65L31.3594 56.6522C38.3653 52.6328 38.5113 49.3865 38.9491 43.8213M1 61.1353L23.7695 51.2415C28.4401 48.9227 31.3594 43.8213 25.0831 38.7198M38.9491 43.8213C37.938 37.9469 34.7455 34.886 31.3594 32.5362C27.9731 30.1865 20.1206 26.095 16.6175 24.343V34.2367M16.6175 45.9855C20.4124 44.7488 26.8346 41.9662 25.0831 38.7198M16.6175 45.9855V34.2367M25.0831 38.7198C22.6018 37.0085 22.1639 36.401 16.6175 34.2367" stroke="white"/>
</svg>
