<svg width="42" height="70" viewBox="0 0 42 70" fill="none" xmlns="http://www.w3.org/2000/svg">
<path d="M9.73576 3L2 7.17391V63.1353M9.73576 3L17.6175 7.17391V17.5314C19.2718 18.5105 21.654 19.2825 26.8129 22.0145C33.1386 25.3644 34.6947 26.5952 36.5921 28.8164C40.6812 33.6032 39.9491 40.5652 39.9491 45.8213M9.73576 3V50.9227L17.6175 47.9855M2 63.1353L11.7792 67L32.3594 58.6522C39.3653 54.6328 39.5113 51.3865 39.9491 45.8213M2 63.1353L24.7695 53.2415C29.4401 50.9227 32.3594 45.8213 26.0831 40.7198M39.9491 45.8213C38.938 39.9469 35.7455 36.886 32.3594 34.5362C28.9731 32.1865 21.1206 28.095 17.6175 26.343V36.2367M17.6175 47.9855C21.4124 46.7488 27.8346 43.9662 26.0831 40.7198M17.6175 47.9855V36.2367M26.0831 40.7198C23.6018 39.0085 23.1639 38.401 17.6175 36.2367" stroke="url(#paint0_linear_139_417)" stroke-width="4"/>
<defs>
<linearGradient id="paint0_linear_139_417" x1="21" y1="3" x2="21" y2="67" gradientUnits="userSpaceOnUse">
<stop stop-color="#9082ED"/>
<stop offset="1" stop-color="#EDC3BE"/>
</linearGradient>
</defs>
</svg>
