<svg width="40" height="40" viewBox="0 0 40 40" fill="none" xmlns="http://www.w3.org/2000/svg">
<path d="M19.9219 0C15.9817 0 12.13 1.1684 8.85388 3.35744C5.57775 5.54648 3.02431 8.65786 1.51647 12.2981C0.0086315 15.9384 -0.385888 19.944 0.382802 23.8084C1.15149 27.6729 3.04887 31.2226 5.83499 34.0088C8.62112 36.7949 12.1709 38.6923 16.0353 39.461C19.8998 40.2296 23.9054 39.8351 27.5457 38.3273C31.1859 36.8194 34.2973 34.266 36.4863 30.9899C38.6754 27.7137 39.8438 23.862 39.8438 19.9219C39.8376 14.6402 37.7367 9.57657 34.0019 5.84183C30.2672 2.1071 25.2036 0.00620283 19.9219 0ZM19.9219 37.5C16.4453 37.5 13.0467 36.4691 10.156 34.5376C7.26529 32.606 5.01226 29.8607 3.68181 26.6487C2.35137 23.4368 2.00326 19.9024 2.68152 16.4926C3.35977 13.0827 5.03393 9.95061 7.49227 7.49226C9.95062 5.03392 13.0827 3.35976 16.4926 2.68151C19.9024 2.00325 23.4368 2.35136 26.6487 3.6818C29.8607 5.01225 32.6061 7.26528 34.5376 10.156C36.4691 13.0467 37.5 16.4453 37.5 19.9219C37.4948 24.5823 35.6412 29.0504 32.3458 32.3458C29.0504 35.6412 24.5823 37.4948 19.9219 37.5ZM28.9063 19.9219C28.9063 20.2327 28.7828 20.5307 28.563 20.7505C28.3433 20.9703 28.0452 21.0938 27.7344 21.0938H14.9395L19.1875 25.3437C19.3026 25.451 19.395 25.5804 19.459 25.7242C19.5231 25.8679 19.5575 26.0231 19.5603 26.1804C19.5631 26.3378 19.5341 26.4941 19.4752 26.64C19.4163 26.7859 19.3285 26.9185 19.2173 27.0297C19.106 27.141 18.9734 27.2288 18.8275 27.2877C18.6816 27.3466 18.5253 27.3756 18.3679 27.3728C18.2106 27.37 18.0554 27.3356 17.9117 27.2715C17.7679 27.2075 17.6385 27.1151 17.5313 27L11.2813 20.75C11.0618 20.5303 10.9385 20.2324 10.9385 19.9219C10.9385 19.6113 11.0618 19.3135 11.2813 19.0938L17.5313 12.8438C17.7534 12.6368 18.0472 12.5241 18.3508 12.5294C18.6544 12.5348 18.9441 12.6578 19.1588 12.8725C19.3735 13.0872 19.4965 13.3768 19.5018 13.6804C19.5072 13.984 19.3945 14.2779 19.1875 14.5L14.9395 18.75H27.7344C28.0452 18.75 28.3433 18.8735 28.563 19.0932C28.7828 19.313 28.9063 19.6111 28.9063 19.9219Z" fill="white"/>
</svg>
