<svg width="40" height="40" viewBox="0 0 40 40" fill="none" xmlns="http://www.w3.org/2000/svg">
<path d="M19.9219 0C15.9817 0 12.13 1.1684 8.85388 3.35744C5.57775 5.54648 3.02431 8.65786 1.51647 12.2981C0.0086315 15.9384 -0.385888 19.944 0.382802 23.8084C1.15149 27.6729 3.04887 31.2226 5.83499 34.0088C8.62112 36.7949 12.1709 38.6923 16.0353 39.461C19.8998 40.2296 23.9054 39.8351 27.5457 38.3273C31.1859 36.8194 34.2973 34.266 36.4863 30.9899C38.6754 27.7137 39.8438 23.862 39.8438 19.9219C39.8376 14.6402 37.7367 9.57657 34.0019 5.84183C30.2672 2.1071 25.2036 0.00620283 19.9219 0ZM19.9219 37.5C16.4453 37.5 13.0467 36.4691 10.156 34.5376C7.26529 32.606 5.01226 29.8607 3.68181 26.6487C2.35137 23.4368 2.00326 19.9024 2.68152 16.4926C3.35977 13.0827 5.03393 9.95061 7.49227 7.49226C9.95062 5.03392 13.0827 3.35976 16.4926 2.68151C19.9024 2.00325 23.4368 2.35136 26.6487 3.6818C29.8607 5.01225 32.6061 7.26528 34.5376 10.156C36.4691 13.0467 37.5 16.4453 37.5 19.9219C37.4948 24.5823 35.6412 29.0504 32.3458 32.3458C29.0504 35.6412 24.5823 37.4948 19.9219 37.5ZM28.5625 19.0938C28.782 19.3135 28.9052 19.6113 28.9052 19.9219C28.9052 20.2324 28.782 20.5303 28.5625 20.75L22.3125 27C22.0904 27.207 21.7965 27.3197 21.4929 27.3143C21.1893 27.309 20.8997 27.186 20.685 26.9713C20.4703 26.7566 20.3473 26.4669 20.3419 26.1633C20.3366 25.8597 20.4493 25.5659 20.6563 25.3437L24.9043 21.0938H12.1094C11.7986 21.0938 11.5005 20.9703 11.2807 20.7505C11.061 20.5307 10.9375 20.2327 10.9375 19.9219C10.9375 19.6111 11.061 19.313 11.2807 19.0932C11.5005 18.8735 11.7986 18.75 12.1094 18.75H24.9043L20.6563 14.5C20.4493 14.2779 20.3366 13.984 20.3419 13.6804C20.3473 13.3768 20.4703 13.0872 20.685 12.8725C20.8997 12.6578 21.1893 12.5348 21.4929 12.5294C21.7965 12.5241 22.0904 12.6368 22.3125 12.8438L28.5625 19.0938Z" fill="white"/>
</svg>
