<svg width="75" height="50" viewBox="0 0 75 50" fill="none" xmlns="http://www.w3.org/2000/svg">
<path d="M46.78 26.0308L40.0303 32.7806C39.8895 32.9213 39.6987 33.0003 39.4997 33.0003C39.3006 33.0003 39.1098 32.9213 38.969 32.7806C38.8283 32.6398 38.7493 32.449 38.7493 32.25C38.7493 32.0509 38.8283 31.8601 38.969 31.7193L44.4392 26.2501H29.75C29.5511 26.2501 29.3603 26.1711 29.2197 26.0305C29.079 25.8898 29 25.6991 29 25.5002C29 25.3013 29.079 25.1105 29.2197 24.9699C29.3603 24.8292 29.5511 24.7502 29.75 24.7502H44.4392L38.969 19.281C38.8283 19.1403 38.7493 18.9494 38.7493 18.7504C38.7493 18.5514 38.8283 18.3605 38.969 18.2198C39.1098 18.0791 39.3006 18 39.4997 18C39.6987 18 39.8895 18.0791 40.0303 18.2198L46.78 24.9696C46.8498 25.0392 46.9051 25.1219 46.9428 25.213C46.9806 25.304 47 25.4016 47 25.5002C47 25.5987 46.9806 25.6963 46.9428 25.7874C46.9051 25.8784 46.8498 25.9611 46.78 26.0308Z" fill="black"/>
<rect x="1" y="1" width="73" height="48" rx="24" stroke="#030712" stroke-width="2"/>
</svg>
