<svg width="25" height="25" viewBox="0 0 25 25" fill="none" xmlns="http://www.w3.org/2000/svg">
<path d="M23.4488 16.7866L17.5438 14.1403C17.2762 14.0257 16.9843 13.9796 16.6944 14.0062C16.4046 14.0329 16.1259 14.1314 15.8838 14.2928C15.8592 14.3086 15.8358 14.3262 15.8138 14.3453L12.7275 16.9703C12.6955 16.9878 12.6598 16.9976 12.6234 16.9989C12.587 17.0002 12.5507 16.993 12.5175 16.9778C10.5338 16.0203 8.47876 13.9778 7.51751 12.0216C7.50151 11.9889 7.49319 11.953 7.49319 11.9166C7.49319 11.8802 7.50151 11.8443 7.51751 11.8116L10.1513 8.68659C10.1702 8.66347 10.1877 8.63926 10.2038 8.61409C10.363 8.37098 10.4592 8.09203 10.4836 7.80243C10.5081 7.51284 10.46 7.22171 10.3438 6.95535L7.71627 1.06035C7.56705 0.712357 7.309 0.422148 6.98084 0.233276C6.65268 0.0444045 6.27212 -0.0329421 5.89626 0.012845C4.2628 0.227591 2.76341 1.02977 1.67829 2.26947C0.593179 3.50917 -0.0034096 5.10157 1.46592e-05 6.74909C1.46592e-05 16.5366 7.96251 24.4991 17.75 24.4991C19.3975 24.5023 20.9897 23.9056 22.2294 22.8205C23.469 21.7354 24.2713 20.2362 24.4863 18.6028C24.532 18.2288 24.4557 17.8499 24.2687 17.5227C24.0818 17.1954 23.7942 16.9373 23.4488 16.7866ZM17.75 22.9991C8.79002 22.9991 1.50001 15.7091 1.50001 6.74909C1.49584 5.46651 1.95877 4.22627 2.80232 3.26011C3.64587 2.29394 4.81233 1.66795 6.08376 1.49909H6.11251C6.16289 1.50004 6.2118 1.51617 6.25284 1.54539C6.29389 1.57461 6.32514 1.61555 6.34251 1.66285L8.98001 7.55159C8.99506 7.58433 9.00284 7.61994 9.00284 7.65597C9.00284 7.692 8.99506 7.7276 8.98001 7.76034L6.34127 10.8928C6.32158 10.9152 6.30361 10.939 6.28752 10.9641C6.1224 11.2162 6.02516 11.5066 6.00524 11.8073C5.98531 12.108 6.04336 12.4087 6.17376 12.6803C7.28251 14.9503 9.57001 17.2203 11.865 18.3291C12.1383 18.4588 12.4405 18.5154 12.7421 18.4935C13.0438 18.4716 13.3346 18.3719 13.5863 18.2041C13.61 18.1878 13.6338 18.1703 13.6563 18.1516L16.7413 15.5266C16.7717 15.5102 16.8054 15.5006 16.8399 15.4985C16.8744 15.4963 16.909 15.5016 16.9413 15.5141L22.8475 18.1603C22.8958 18.1809 22.9363 18.2161 22.9635 18.2609C22.9906 18.3058 23.003 18.3581 22.9988 18.4103C22.8308 19.6824 22.2054 20.8497 21.2394 21.6942C20.2735 22.5387 19.0331 23.0025 17.75 22.9991Z" fill="white"/>
</svg>
