<svg width="60" height="40" viewBox="0 0 60 40" fill="none" xmlns="http://www.w3.org/2000/svg">
<path d="M39.8133 20.451L32.1535 28.1108C32.0325 28.2236 31.8725 28.285 31.7071 28.282C31.5418 28.2791 31.384 28.2121 31.267 28.0952C31.1501 27.9782 31.0831 27.8205 31.0802 27.6551C31.0772 27.4897 31.1386 27.3297 31.2514 27.2087L37.8207 20.6383H20.6383C20.469 20.6383 20.3067 20.571 20.187 20.4513C20.0673 20.3316 20 20.1692 20 20C20 19.8307 20.0673 19.6683 20.187 19.5486C20.3067 19.4289 20.469 19.3616 20.6383 19.3616H37.8207L31.2514 12.7912C31.1386 12.6702 31.0772 12.5102 31.0802 12.3448C31.0831 12.1795 31.1501 12.0217 31.267 11.9047C31.384 11.7878 31.5418 11.7208 31.7071 11.7179C31.8725 11.715 32.0325 11.7763 32.1535 11.8891L39.8133 19.5489C39.9329 19.6686 40 19.8308 40 20C40 20.1691 39.9329 20.3313 39.8133 20.451Z" fill="white"/>
<rect x="0.5" y="0.5" width="59" height="39" rx="19.5" stroke="white"/>
</svg>
