<svg width="25" height="35" viewBox="0 0 25 35" fill="none" xmlns="http://www.w3.org/2000/svg">
<path d="M24.9188 16.7408C24.9612 16.6636 24.9876 16.5788 24.9966 16.4912C25.0055 16.4037 24.9969 16.3152 24.971 16.2311C24.9452 16.147 24.9027 16.0689 24.8461 16.0015C24.7896 15.9341 24.7201 15.8787 24.6417 15.8387C24.5634 15.7986 24.4778 15.7747 24.39 15.7683C24.3022 15.7619 24.2141 15.7732 24.1307 15.8015C24.0474 15.8299 23.9706 15.8746 23.9049 15.9331C23.8392 15.9917 23.7859 16.0628 23.7482 16.1423C22.3567 18.8162 20.1291 20.9617 17.405 22.252L14.1693 14.97C15.2408 14.3412 16.0873 13.3911 16.5887 12.2544C17.0902 11.1176 17.2213 9.85195 16.9633 8.63661C16.7054 7.42126 16.0716 6.31788 15.1517 5.4828C14.2318 4.64772 13.0725 4.12328 11.8379 3.98379V0.657662C11.8379 0.483239 11.7686 0.31596 11.6453 0.192625C11.5219 0.0692893 11.3547 0 11.1802 0C11.0058 0 10.8385 0.0692893 10.7152 0.192625C10.5919 0.31596 10.5226 0.483239 10.5226 0.657662V3.98379C9.28803 4.12328 8.12867 4.64772 7.20877 5.4828C6.28886 6.31788 5.65505 7.42126 5.39714 8.63661C5.13923 9.85195 5.27029 11.1176 5.77176 12.2544C6.27323 13.3911 7.11967 14.3412 8.19117 14.97L0.0575369 33.2728C-0.0136334 33.4315 -0.0189884 33.612 0.0426435 33.7747C0.104275 33.9374 0.227871 34.0691 0.386368 34.1409C0.471482 34.1797 0.564099 34.1994 0.657654 34.1984C0.785085 34.1985 0.909796 34.1616 1.01663 34.0921C1.12346 34.0226 1.20781 33.9236 1.25942 33.8071L5.64273 23.9422C7.4059 24.6379 9.28477 24.9939 11.1802 24.9912C13.0766 24.9892 14.9568 24.6427 16.7293 23.9685L21.1011 33.8071C21.1527 33.9236 21.237 34.0226 21.3439 34.0921C21.4507 34.1616 21.5754 34.1985 21.7028 34.1984C21.7947 34.1986 21.8856 34.179 21.9692 34.1409C22.1277 34.0691 22.2513 33.9374 22.3129 33.7747C22.3745 33.612 22.3692 33.4315 22.298 33.2728L17.9344 23.4522C20.9353 22.0411 23.3893 19.683 24.9188 16.7408ZM6.57661 9.86493C6.57661 8.95442 6.84661 8.06435 7.35246 7.30729C7.85832 6.55022 8.57731 5.96016 9.41851 5.61173C10.2597 5.26329 11.1854 5.17212 12.0784 5.34975C12.9714 5.52739 13.7917 5.96584 14.4355 6.60967C15.0793 7.2535 15.5178 8.07379 15.6954 8.9668C15.8731 9.85982 15.7819 10.7855 15.4334 11.6267C15.085 12.4679 14.495 13.1869 13.7379 13.6927C12.9808 14.1986 12.0908 14.4686 11.1802 14.4686C9.95928 14.4686 8.78833 13.9835 7.92498 13.1202C7.06164 12.2568 6.57661 11.0859 6.57661 9.86493ZM11.1802 23.6758C9.46887 23.6794 7.77194 23.3626 6.17708 22.742L9.39305 15.5077C10.556 15.876 11.8044 15.876 12.9674 15.5077L16.1949 22.7666C14.5908 23.3659 12.8926 23.6738 11.1802 23.6758Z" fill="black"/>
</svg>
