<svg width="18" height="18" viewBox="0 0 18 18" fill="none" xmlns="http://www.w3.org/2000/svg">
<path d="M17.7411 1.00977V14.0098C17.7411 14.2087 17.662 14.3994 17.5214 14.5401C17.3807 14.6807 17.19 14.7598 16.9911 14.7598C16.7921 14.7598 16.6014 14.6807 16.4607 14.5401C16.3201 14.3994 16.2411 14.2087 16.2411 14.0098V2.81977L1.52106 17.5398C1.37888 17.6722 1.19084 17.7444 0.996535 17.7409C0.802234 17.7375 0.616848 17.6588 0.479435 17.5214C0.342022 17.384 0.263311 17.1986 0.259882 17.0043C0.256454 16.81 0.328577 16.6219 0.461057 16.4798L15.1811 1.75977H3.99106C3.79215 1.75977 3.60138 1.68075 3.46073 1.5401C3.32008 1.39944 3.24106 1.20868 3.24106 1.00977C3.24106 0.810853 3.32008 0.620088 3.46073 0.479435C3.60138 0.338783 3.79215 0.259766 3.99106 0.259766H16.9911C17.19 0.259766 17.3807 0.338783 17.5214 0.479435C17.662 0.620088 17.7411 0.810853 17.7411 1.00977Z" fill="black"/>
</svg>
