<svg width="30" height="27" viewBox="0 0 30 27" fill="none" xmlns="http://www.w3.org/2000/svg">
<path d="M29.4444 0C26.6262 0 23.4497 1.56119 19.9995 4.63913C17.4341 6.92952 15.2229 9.61577 13.7492 11.5742C12.5748 11.1506 11.3157 11.016 10.0784 11.1816C8.84097 11.3472 7.66163 11.8082 6.63998 12.5257C5.61832 13.2431 4.78438 14.196 4.20861 15.3037C3.63284 16.4114 3.33216 17.6414 3.33197 18.8899C3.33197 23.504 0.379043 25.5569 0.245703 25.6513C0.146985 25.7177 0.0721615 25.8139 0.0322371 25.926C-0.00768734 26.038 -0.0106051 26.1599 0.0239132 26.2737C0.0584315 26.3875 0.128564 26.4872 0.223994 26.5582C0.319425 26.6292 0.435116 26.6677 0.554052 26.668H11.1101C12.3586 26.6678 13.5886 26.3672 14.6963 25.7914C15.804 25.2156 16.7569 24.3817 17.4743 23.36C18.1918 22.3384 18.6528 21.159 18.8184 19.9216C18.984 18.6843 18.8494 17.4252 18.4258 16.2508C20.3856 14.7744 23.0705 12.5631 25.3609 10.0005C28.4388 6.55034 30 3.37378 30 0.555584C30 0.408234 29.9415 0.266919 29.8373 0.162727C29.7331 0.0585347 29.5918 0 29.4444 0ZM11.1101 25.5569H1.99163C3.04168 24.4026 4.44314 22.2345 4.44314 18.8899C4.44314 17.5712 4.83415 16.2822 5.56673 15.1859C6.29931 14.0895 7.34056 13.235 8.55879 12.7303C9.77703 12.2257 11.1175 12.0937 12.4108 12.351C13.7041 12.6082 14.892 13.2432 15.8244 14.1756C16.7568 15.108 17.3918 16.2959 17.649 17.5892C17.9063 18.8825 17.7743 20.223 17.2697 21.4412C16.765 22.6594 15.9105 23.7007 14.8141 24.4333C13.7178 25.1659 12.4288 25.5569 11.1101 25.5569ZM14.7937 12.0409C15.3673 11.2853 16.0882 10.3741 16.9174 9.41576C18.4115 10.3321 19.6679 11.5885 20.5842 13.0826C19.6203 13.916 18.7147 14.6327 17.9591 15.2063C17.2348 13.8654 16.1346 12.7652 14.7937 12.0409ZM21.4287 12.3381C20.4647 10.8213 19.1787 9.53528 17.6619 8.57127C20.694 5.19888 24.897 1.47646 28.8638 1.13617C28.5235 5.10304 24.8011 9.30603 21.4287 12.3381Z" fill="black"/>
</svg>
