<svg width="20" height="32" viewBox="0 0 20 32" fill="none" xmlns="http://www.w3.org/2000/svg">
<path d="M17.0588 0H2.94118C2.16113 0 1.41303 0.309873 0.861451 0.861451C0.309873 1.41303 0 2.16113 0 2.94118V28.8235C0 29.6036 0.309873 30.3517 0.861451 30.9033C1.41303 31.4548 2.16113 31.7647 2.94118 31.7647H17.0588C17.8389 31.7647 18.587 31.4548 19.1385 30.9033C19.6901 30.3517 20 29.6036 20 28.8235V2.94118C20 2.16113 19.6901 1.41303 19.1385 0.861451C18.587 0.309873 17.8389 0 17.0588 0ZM18.8235 28.8235C18.8235 29.2916 18.6376 29.7404 18.3067 30.0714C17.9757 30.4023 17.5269 30.5882 17.0588 30.5882H2.94118C2.47315 30.5882 2.02429 30.4023 1.69334 30.0714C1.36239 29.7404 1.17647 29.2916 1.17647 28.8235V2.94118C1.17647 2.47315 1.36239 2.02429 1.69334 1.69334C2.02429 1.36239 2.47315 1.17647 2.94118 1.17647H17.0588C17.5269 1.17647 17.9757 1.36239 18.3067 1.69334C18.6376 2.02429 18.8235 2.47315 18.8235 2.94118V28.8235ZM11.1765 5.88235C11.1765 6.11504 11.1075 6.3425 10.9782 6.53597C10.8489 6.72944 10.6652 6.88023 10.4502 6.96927C10.2352 7.05831 9.9987 7.08161 9.77048 7.03622C9.54227 6.99082 9.33264 6.87878 9.16811 6.71424C9.00358 6.54971 8.89153 6.34008 8.84614 6.11187C8.80074 5.88366 8.82404 5.64711 8.91308 5.43214C9.00213 5.21717 9.15292 5.03343 9.34639 4.90415C9.53986 4.77488 9.76732 4.70588 10 4.70588C10.312 4.70588 10.6113 4.82983 10.8319 5.05046C11.0525 5.27109 11.1765 5.57033 11.1765 5.88235Z" fill="black"/>
</svg>
