<svg width="25" height="25" viewBox="0 0 25 25" fill="none" xmlns="http://www.w3.org/2000/svg">
<path d="M16.9641 7.66284C16.2331 3.16092 14.509 0 12.5025 0C10.4961 0 8.77193 3.16092 8.04094 7.66284H16.9641ZM7.66284 12.5025C7.66284 13.6217 7.72333 14.6955 7.8292 15.729H17.1708C17.2767 14.6955 17.3372 13.6217 17.3372 12.5025C17.3372 11.3833 17.2767 10.3095 17.1708 9.27606H7.8292C7.72333 10.3095 7.66284 11.3833 7.66284 12.5025ZM24.0321 7.66284C22.5902 4.23977 19.6713 1.59306 16.0667 0.524299C17.2968 2.22827 18.1438 4.79431 18.5874 7.66284H24.0321ZM8.93325 0.524299C5.33374 1.59306 2.40976 4.23977 0.972978 7.66284H6.41762C6.85622 4.79431 7.70317 2.22827 8.93325 0.524299ZM24.5715 9.27606H18.7891C18.8949 10.3347 18.9554 11.4186 18.9554 12.5025C18.9554 13.5864 18.8949 14.6703 18.7891 15.729H24.5664C24.8437 14.6955 25 13.6217 25 12.5025C25 11.3833 24.8437 10.3095 24.5715 9.27606ZM6.04961 12.5025C6.04961 11.4186 6.1101 10.3347 6.21597 9.27606H0.433555C0.161323 10.3095 0 11.3833 0 12.5025C0 13.6217 0.161323 14.6955 0.433555 15.729H6.21093C6.1101 14.6703 6.04961 13.5864 6.04961 12.5025ZM8.04094 17.3422C8.77193 21.8441 10.4961 25.005 12.5025 25.005C14.509 25.005 16.2331 21.8441 16.9641 17.3422H8.04094ZM16.0718 24.4807C19.6713 23.412 22.5953 20.7653 24.0371 17.3422H18.5925C18.1488 20.2107 17.3019 22.7768 16.0718 24.4807ZM0.972978 17.3422C2.4148 20.7653 5.33374 23.412 8.93829 24.4807C7.70821 22.7768 6.86126 20.2107 6.41762 17.3422H0.972978Z" fill="white"/>
</svg>
