<svg width="80" height="50" viewBox="0 0 80 50" fill="none" xmlns="http://www.w3.org/2000/svg">
<path d="M51.8486 25.5446L42.6001 34.7932C42.454 34.9293 42.2608 35.0034 42.0611 34.9999C41.8614 34.9964 41.6709 34.9155 41.5297 34.7743C41.3885 34.6331 41.3076 34.4426 41.3041 34.2429C41.3006 34.0432 41.3747 33.85 41.5108 33.7039L49.4427 25.7707H28.6965C28.4921 25.7707 28.2961 25.6895 28.1515 25.545C28.007 25.4004 27.9258 25.2044 27.9258 25C27.9258 24.7956 28.007 24.5996 28.1515 24.455C28.2961 24.3105 28.4921 24.2293 28.6965 24.2293H49.4427L41.5108 16.2961C41.3747 16.15 41.3006 15.9568 41.3041 15.7571C41.3076 15.5574 41.3885 15.3669 41.5297 15.2257C41.6709 15.0845 41.8614 15.0036 42.0611 15.0001C42.2608 14.9966 42.454 15.0707 42.6001 15.2068L51.8486 24.4554C51.9929 24.5999 52.074 24.7958 52.074 25C52.074 25.2042 51.9929 25.4001 51.8486 25.5446Z" fill="white"/>
<rect x="0.5" y="0.5" width="79" height="49" rx="24.5" stroke="white"/>
</svg>
