<svg width="35" height="35" viewBox="0 0 35 35" fill="none" xmlns="http://www.w3.org/2000/svg">
<path d="M33.4573 24.059C32.3838 21.7453 31.0752 19.5482 29.5522 17.5022C31.0752 15.4563 32.3838 13.2591 33.4573 10.9454C35.4318 6.55903 35.5136 3.14654 33.6875 1.31475C31.8614 -0.517045 28.4432 -0.429546 24.0568 1.54491C21.7431 2.61842 19.5459 3.92702 17.5 5.45007C15.4541 3.92702 13.2569 2.61842 10.9432 1.54491C6.55681 -0.429546 3.1367 -0.511339 1.31252 1.31475C-0.511661 3.14083 -0.43177 6.55903 1.54268 10.9454C2.6162 13.2591 3.9248 15.4563 5.44784 17.5022C3.9248 19.5482 2.6162 21.7453 1.54268 24.059C-0.43177 28.4454 -0.513563 31.8579 1.31252 33.6897C2.18752 34.5647 3.42393 35.0022 4.96849 35.0022C6.6386 35.0022 8.66061 34.4867 10.9432 33.4595C13.2569 32.386 15.4541 31.0774 17.5 29.5544C19.5459 31.0774 21.7431 32.386 24.0568 33.4595C26.3394 34.4867 28.3614 35.0022 30.0315 35.0022C31.5704 35.0022 32.8125 34.5647 33.6875 33.6897C35.5136 31.8655 35.4318 28.4454 33.4573 24.059ZM32.6128 2.38947C34.5663 4.3449 33.21 9.81745 28.5992 16.2449C27.1625 14.4157 25.6157 12.6758 23.9674 11.0348C22.3237 9.38889 20.5813 7.84464 18.7497 6.41066C25.1848 1.79029 30.6573 0.43404 32.6128 2.38947ZM27.6671 17.5022C26.1998 19.4022 24.6114 21.2054 22.9117 22.9006C21.2169 24.6008 19.4137 26.1893 17.5133 27.656C15.6129 26.1893 13.8097 24.6008 12.115 22.9006C10.4153 21.2054 8.82682 19.4022 7.35952 17.5022C10.302 13.7049 13.7087 10.2912 17.5 7.34082C19.3984 8.80926 21.2009 10.3977 22.8965 12.0963C24.599 13.7937 26.19 15.5994 27.6595 17.5022H27.6671ZM2.38725 2.38947C2.96741 1.81882 3.85382 1.52398 4.98181 1.52398C7.66577 1.52398 11.7174 3.15795 16.2408 6.40305C12.5776 9.2768 9.27387 12.5812 6.40083 16.2449C1.78997 9.81745 0.433717 4.3449 2.38725 2.38947ZM2.38725 32.615C0.433717 30.6595 1.78997 25.1965 6.40083 18.7596C7.8375 20.5887 9.3843 22.3286 11.0326 23.9696C12.6763 25.6156 14.4187 27.1598 16.2503 28.5938C9.81523 33.2123 4.34268 34.5685 2.38725 32.615ZM32.6128 32.615C30.6573 34.5685 25.1943 33.2123 18.7573 28.6014C20.5865 27.1647 22.3264 25.6179 23.9674 23.9696C25.6133 22.3259 27.1576 20.5835 28.5916 18.752C33.21 25.187 34.5663 30.6595 32.6128 32.615ZM19.0217 17.5022C19.0217 17.8032 18.9325 18.0974 18.7653 18.3477C18.5981 18.5979 18.3604 18.7929 18.0823 18.9081C17.8043 19.0233 17.4983 19.0534 17.2031 18.9947C16.9079 18.936 16.6368 18.7911 16.424 18.5783C16.2112 18.3654 16.0662 18.0943 16.0075 17.7991C15.9488 17.5039 15.9789 17.1979 16.0941 16.9199C16.2093 16.6418 16.4043 16.4042 16.6546 16.2369C16.9048 16.0697 17.199 15.9805 17.5 15.9805C17.9036 15.9805 18.2907 16.1408 18.576 16.4262C18.8614 16.7116 19.0217 17.0986 19.0217 17.5022Z" fill="#030712"/>
</svg>
